<?xml version="1.0" encoding="UTF-8"?>





<svg width="80px" height="60px" viewBox="0 0 80 60" version="1.1" xmlns="http://www.w3.org/2000/svg" xmlns:xlink="http://www.w3.org/1999/xlink">
    <!-- Generator: Sketch 47.1 (45422) - http://www.bohemiancoding.com/sketch -->
    
	<title>Group 15</title>
    
	<desc>Created with Sketch.</desc>
    
	<defs>
        
		path d="M0,17 L80,17 L80,67 L80,67 C80,69.209139 78.209139,71 76,71 L4,71 L4,71 C1.790861,71 2.705415e-16,69.209139 0,67 L0,17 Z" id="path-1"></path>
        
		<path d="M2,11 L78,11 L78,11 C79.1045695,11 80,11.8954305 80,13 L80,19 L0,19 L0,13 L0,13 C-1.3527075e-16,11.8954305 0.8954305,11 2,11 Z" id="path-2"></path>
        
		<rect id="path-3" x="0" y="0" width="80" height="80"></rect>
    
	</defs>
    
	<g id="-首页" stroke="none" stroke-width="1" fill="none" fill-rule="evenodd">
        
		<g id="切图" transform="translate(-25.000000, -332.000000)">
            
			<g id="Group-15" transform="translate(25.000000, 321.000000)">
                
				<g id="Rectangle-14">
                    
					<use fill="#FFFFFF" fill-rule="evenodd" xlink:href="#path-1"></use>
                    
					<path stroke="#4F5B78" stroke-width="2" d="M1,18 L1,67 C1,68.6568542 2.34314575,70 4,70 L76,70 C77.6568542,70 79,68.6568542 79,67 L79,18 L1,18 Z"></path>
                
				</g>
                
				<rect id="Rectangle-24-Copy-30" stroke="#4F5B78" stroke-width="1.5" fill="#F6F7F8" x="19" y="59" width="7" height="7" rx="1"></rect>
                
				<rect id="Rectangle-24-Copy-29" stroke="#4F5B78" stroke-width="1.5" fill="#F6F7F8" x="7" y="59" width="7" height="7" rx="1"></rect>
                
				<rect id="Rectangle-24-Copy-28" stroke="#4F5B78" stroke-width="1.5" fill="#F6F7F8" x="19" y="47" width="7" height="7" rx="1"></rect>
                
				<rect id="Rectangle-24-Copy-27" stroke="#4F5B78" stroke-width="1.5" fill="#F6F7F8" x="7" y="47" width="7" height="7" rx="1"></rect>
                
				<rect id="Rectangle-24-Copy-26" stroke="#4F5B78" stroke-width="1.5" fill="#F6F7F8" x="19" y="35" width="7" height="7" rx="1"></rect>
                
				<rect id="Rectangle-24-Copy-25" stroke="#4F5B78" stroke-width="1.5" fill="#F6F7F8" x="7" y="35" width="7" height="7" rx="1"></rect>
                
				<rect id="Rectangle-24-Copy" stroke="#4F5B78" stroke-width="1.5" fill="#F6F7F8" x="19" y="23" width="7" height="7" rx="1"></rect>
                
				<rect id="Rectangle-24-Copy-2" stroke="#4F5B78" stroke-width="1.5" fill="#F6F7F8" x="31" y="23" width="7" height="7" rx="1"></rect>
                
				<rect id="Rectangle-24" stroke="#4F5B78" stroke-width="1.5" fill="#F6F7F8" x="7" y="23" width="7" height="7" rx="1"></rect>
                
				<g id="Rectangle-10">
                    
					<use fill="#F6F7F8" fill-rule="evenodd" xlink:href="#path-2"></use>
                    
					<path stroke="#4F5B78" stroke-width="2" d="M1,18 L79,18 L79,13 C79,12.4477153 78.5522847,12 78,12 L2,12 C1.44771525,12 1,12.4477153 1,13 L1,18 Z"></path>
                
				</g>
                
				<g id="Rectangle-23" opacity="0">
                    
					<use fill="#D8D8D8" fill-rule="evenodd" xlink:href="#path-3"></use>
                    
					<rect stroke="#979797" stroke-width="1" x="0.5" y="0.5" width="79" height="79"></rect>
                
				</g>
            
			</g>
        
		</g>
    
	</g>

</svg>